<svg width="47" height="47" viewBox="0 0 47 47" fill="none" xmlns="http://www.w3.org/2000/svg">
<path d="M35.1594 20.8066C35.4605 21.1073 35.8687 21.2762 36.2942 21.2762C36.7197 21.2762 37.1279 21.1073 37.4289 20.8066L45.9931 12.2425C46.2938 11.9414 46.4627 11.5333 46.4627 11.1078C46.4627 10.6822 46.2938 10.2741 45.9931 9.973L37.4289 1.40888C37.1245 1.12523 36.7219 0.970817 36.3059 0.978157C35.8899 0.985497 35.493 1.15402 35.1988 1.44823C34.9046 1.74243 34.7361 2.13935 34.7287 2.55535C34.7214 2.97136 34.8758 3.37397 35.1594 3.67837L40.9804 9.50198L2.03769 9.50198C1.61181 9.50198 1.20338 9.67116 0.902235 9.9723C0.601094 10.2734 0.431915 10.6819 0.431915 11.1077C0.431915 11.5336 0.601094 11.9421 0.902235 12.2432C1.20338 12.5443 1.61181 12.7135 2.03769 12.7135L40.9804 12.7135L35.1594 18.5371C34.8587 18.8382 34.6898 19.2463 34.6898 19.6719C34.6898 20.0974 34.8587 20.5055 35.1594 20.8066ZM9.46707 46.499L0.90294 37.9349C0.602231 37.6338 0.433327 37.2257 0.433327 36.8001C0.433327 36.3746 0.602231 35.9665 0.90294 35.6654L9.46707 27.1013C9.77147 26.8176 10.1741 26.6632 10.5901 26.6705C11.0061 26.6779 11.403 26.8464 11.6972 27.1406C11.9914 27.4348 12.1599 27.8317 12.1673 28.2477C12.1746 28.6637 12.0202 29.0663 11.7366 29.3707L5.91563 35.1943L44.8583 35.1943C45.2842 35.1943 45.6926 35.3635 45.9938 35.6647C46.2949 35.9658 46.4641 36.3743 46.4641 36.8001C46.4641 37.226 46.2949 37.6344 45.9938 37.9356C45.6926 38.2367 45.2842 38.4059 44.8583 38.4059L5.91563 38.4059L11.7366 44.2295C12.0202 44.5339 12.1746 44.9365 12.1673 45.3525C12.1599 45.7685 11.9914 46.1654 11.6972 46.4596C11.403 46.7539 11.0061 46.9224 10.5901 46.9297C10.1741 46.9371 9.77147 46.7826 9.46707 46.499Z" fill="black" fill-opacity="0.2"/>
</svg>
