<svg width="17" height="30" viewBox="0 0 17 30" fill="none" xmlns="http://www.w3.org/2000/svg">
<path fill-rule="evenodd" clip-rule="evenodd" d="M3.0079 19.4124C2.86693 19.2611 2.69694 19.1398 2.50806 19.0556C2.31918 18.9715 2.11529 18.9262 1.90854 18.9226C1.70179 18.9189 1.49643 18.957 1.3047 19.0344C1.11297 19.1118 0.938804 19.2271 0.792588 19.3733C0.646373 19.5195 0.531104 19.6937 0.453662 19.8854C0.37622 20.0772 0.338187 20.2825 0.341834 20.4893C0.345483 20.696 0.390736 20.8999 0.474894 21.0888C0.559052 21.2777 0.680392 21.4477 0.831674 21.5886L7.50407 28.2631L8.59218 29.3512L9.68029 28.2631L16.3527 21.5907C16.6333 21.3004 16.7887 20.9115 16.7854 20.5078C16.7821 20.1041 16.6203 19.7178 16.335 19.4322C16.0496 19.1466 15.6635 18.9844 15.2597 18.9807C14.856 18.977 14.467 19.1321 14.1765 19.4124L10.132 23.4569L10.132 2.14837C10.132 1.73999 9.96974 1.34834 9.68097 1.05958C9.39221 0.770812 9.00056 0.608585 8.59218 0.608585C8.18381 0.608585 7.79216 0.770812 7.50339 1.05958C7.21463 1.34834 7.0524 1.73999 7.0524 2.14837L7.0524 23.4569L3.0079 19.4124Z" fill="black" fill-opacity="0.2"/>
</svg>
