<svg width="48" height="51" viewBox="0 0 48 51" fill="none" xmlns="http://www.w3.org/2000/svg">
<path d="M11.9019 0.654297L0.895782 5.36823L12.5867 32.6657L17.1167 30.7256L14.0805 9.61462L13.9397 8.63477L22.5809 7.39195L21.204 4.1771C19.3692 4.59207 18.0286 4.55644 15.9905 6.49359L15.3314 7.11973L14.6515 6.51658C12.6588 4.74891 12.3608 2.49489 11.9019 0.654297ZM13.982 0.708409C14.3386 2.11676 14.5907 3.37828 15.3872 4.41269C16.797 3.28952 18.076 2.84794 19.2313 2.57232C17.6382 1.7283 15.97 1.22864 13.982 0.708409ZM28.032 8.60815L16.181 10.3125L20.4083 39.7058L24.4754 39.1209L27.0257 17.7844L27.1431 16.8016L36.6113 17.9333L36.1056 14.4182C34.2257 14.3444 32.9402 13.9629 30.4699 15.3064L29.6715 15.7409L29.1708 14.9821C27.7036 12.759 27.9989 10.5048 28.032 8.60815ZM30.027 9.19844C30.007 10.6513 29.924 11.9352 30.4257 13.1405C32.0783 12.4204 33.4281 12.325 34.6154 12.3577C33.2949 11.1301 31.8129 10.2156 30.027 9.19844ZM28.8739 19.0023L25.3496 48.4883L44.3516 50.7593L47.057 28.1252C45.2602 27.5673 44.1172 26.8657 41.3834 27.5242L40.4998 27.7371L40.2127 26.8748C39.3708 24.3477 40.2394 22.2468 40.7623 20.4233L28.8739 19.0023ZM42.5367 21.5099C42.1414 22.9081 41.7288 24.1266 41.9015 25.4207C43.684 25.1529 45.0125 25.41 46.1509 25.749C45.1931 24.2214 43.9984 22.9544 42.5367 21.5099Z" fill="#C7C7C7"/>
</svg>
