<svg width="62" height="62" viewBox="0 0 62 62" fill="none" xmlns="http://www.w3.org/2000/svg">
<path d="M30.3945 0.108988C29.4984 0.387503 28.8566 0.944534 28.4691 1.81641C28.2391 2.325 28.2148 2.60352 28.2148 5.52188C28.2148 9.09414 28.2754 9.44531 29.0383 10.2324C29.8133 11.0316 30.2008 11.1406 32.3078 11.1406H34.1484V12.6543V14.168H32.3684C30.7336 14.168 30.5156 14.1922 29.9707 14.4586C29.2441 14.7977 28.7961 15.2578 28.4691 15.9844C28.2391 16.493 28.2148 16.7715 28.2148 19.6656C28.2148 21.7242 28.2633 22.9594 28.3602 23.2742C28.5418 23.8918 29.3531 24.8 29.9707 25.0785C30.4309 25.2965 31.1574 25.3086 45.0832 25.3086C57.2168 25.3086 59.7719 25.2844 60.1109 25.1391C60.668 24.909 61.3703 24.2672 61.673 23.6859C61.9273 23.2137 61.9395 23.0563 61.9395 19.7383C61.9395 16.4324 61.9273 16.2629 61.673 15.8027C61.334 15.173 60.8496 14.725 60.1836 14.4223C59.6992 14.2043 59.3965 14.168 57.241 14.168H54.8434L54.8797 12.6785L54.916 11.2012L57.459 11.1406C60.2926 11.068 60.4137 11.0438 61.1766 10.1961C61.9758 9.31211 62.0242 9.04571 61.9758 5.37656L61.9395 2.11914L61.6004 1.55C61.225 0.908205 60.6438 0.411722 59.9777 0.169535C59.6023 0.0363312 56.8535 0.0121117 45.1074 0.0121117C37.1758 0.0242214 30.5641 0.0605488 30.3945 0.108988ZM59.6992 2.30078C59.9293 2.53086 59.9414 2.70039 59.9414 5.57031V8.60977L59.6387 8.90039L59.348 9.20313H45.1195H30.891L30.552 8.9125L30.2129 8.62188L30.1766 5.96992C30.1281 3.06367 30.1766 2.63985 30.5277 2.28867C30.7578 2.0586 31.0605 2.0586 45.1074 2.0586C59.2996 2.0586 59.457 2.0586 59.6992 2.30078ZM52.8938 12.6785L52.9301 14.168H44.5625H36.207V12.6543V11.1406L44.5383 11.1648L52.8574 11.2012L52.8938 12.6785ZM59.3238 16.2387C59.5297 16.3113 59.7598 16.4688 59.8203 16.5898C59.893 16.723 59.9414 18.0793 59.9414 19.7746C59.9414 22.5113 59.9293 22.7656 59.7113 23.0199L59.4813 23.3105L45.1922 23.3469L30.891 23.3711L30.552 23.0805L30.2129 22.7898L30.1766 20.0773C30.1281 16.9773 30.2008 16.5414 30.7941 16.2871C31.1211 16.1418 33.5066 16.1176 45.059 16.1055C54.8918 16.1055 59.0453 16.1418 59.3238 16.2387Z" fill="#444FB4"/>
<path d="M33.1797 5.57031V6.53906H34.209H35.2383V5.57031V4.60156H34.209H33.1797V5.57031Z" fill="#444FB4"/>
<path d="M37.6602 5.57031V6.53906H38.75H39.8398V5.57031V4.60156H38.75H37.6602V5.57031Z" fill="#444FB4"/>
<path d="M49.5273 5.57031V6.53906H53.2812H57.0352V5.57031V4.60156H53.2812H49.5273V5.57031Z" fill="#444FB4"/>
<path d="M33.1797 19.7383V20.707H34.209H35.2383V19.7383V18.7695H34.209H33.1797V19.7383Z" fill="#444FB4"/>
<path d="M37.6602 19.7383V20.707H38.75H39.8398V19.7383V18.7695H38.75H37.6602V19.7383Z" fill="#444FB4"/>
<path d="M49.5273 19.7383V20.707H53.2812H57.0352V19.7383V18.7695H53.2812H49.5273V19.7383Z" fill="#444FB4"/>
<path d="M16.7957 16.1902C16.7473 16.2266 16.7109 16.6625 16.7109 17.159V18.043H17.7402H18.7695V17.0742V16.1055H17.825C17.3043 16.1055 16.832 16.1418 16.7957 16.1902Z" fill="#444FB4"/>
<path d="M14.168 19.7383V20.707H15.1367H16.1055V19.7383V18.7695H15.1367H14.168V19.7383Z" fill="#444FB4"/>
<path d="M19.375 19.7383V20.707H20.4043H21.4336V19.7383V18.7695H20.4043H19.375V19.7383Z" fill="#444FB4"/>
<path d="M16.7109 22.4023V23.3711H17.7402H18.7695V22.4023V21.4336H17.7402H16.7109V22.4023Z" fill="#444FB4"/>
<path d="M44.0781 35.2383V41.6562H41.4141H38.75V42.625V43.5938H42.068C43.8965 43.5938 45.4828 43.5574 45.5918 43.5211C46.1246 43.3152 46.1367 43.1457 46.1367 35.7832V28.8203H45.1074H44.0781V35.2383Z" fill="#444FB4"/>
<path d="M1.27148 29.3531C0.823437 29.559 0.302734 30.1039 0.133203 30.552C0.0363281 30.782 0 34.6449 0 42.6492C0 54.3469 0 54.4195 0.254297 54.9402C0.423828 55.2914 0.678125 55.5699 1.01719 55.7637L1.53789 56.0664H7.3625C10.5715 56.0664 13.1992 56.1027 13.1992 56.1512C13.1992 56.2723 12.5816 59.4934 12.5211 59.7234C12.4727 59.9051 12.2668 59.9414 11.2254 59.9656L9.99023 60.002L9.9539 60.9949L9.91758 62H17.7402H25.5508V60.9707V59.9414H24.3035H23.0562L22.7293 58.2703C22.5477 57.35 22.4023 56.4781 22.4023 56.3328V56.0785L28.3238 56.0422C34.1 56.0059 34.2574 55.9938 34.5844 55.7516C35.093 55.3762 35.3715 54.9402 35.4926 54.359C35.6379 53.5719 35.6258 31.5449 35.4684 30.891C35.3109 30.1645 34.9355 29.6801 34.3422 29.4137C33.8699 29.1957 33.1918 29.1836 17.7402 29.1957C4.55312 29.1957 1.57422 29.2199 1.27148 29.3531ZM33.5187 42.6492L33.543 54.1289H17.8008H2.05859V42.625V31.1211L17.7766 31.1453L33.4824 31.1816L33.5187 42.6492ZM20.6102 57.7617C20.7918 58.6578 20.9371 59.5176 20.9492 59.6629V59.9414H17.7402C15.9723 59.9414 14.5312 59.9293 14.5312 59.9051C14.5312 59.893 14.7008 59.0332 14.8945 58.0039C15.0883 56.9746 15.2578 56.1148 15.2578 56.0906C15.2578 56.0785 16.384 56.0785 17.7645 56.0906L20.2711 56.127L20.6102 57.7617Z" fill="#444FB4"/>
<path d="M5.72773 34.2332C5.57031 34.2574 5.34023 34.427 5.20703 34.5965C4.96484 34.8992 4.96484 35.0688 4.96484 42.6492V50.3992L5.31602 50.7504L5.6793 51.1016L17.8613 51.0773L30.0555 51.041L30.2855 50.7504C30.5035 50.484 30.5156 50.1691 30.5156 42.6613C30.5156 37.8055 30.4672 34.7781 30.3945 34.6328C30.334 34.5117 30.1039 34.3543 29.898 34.2816C29.6195 34.1848 26.0594 34.1484 17.7523 34.1605C11.2859 34.1727 5.87305 34.209 5.72773 34.2332ZM28.5781 42.625V49.043H17.8008H7.02344V42.625V36.207H17.8008H28.5781V42.625Z" fill="#444FB4"/>
</svg>
