<svg width="60" height="66" viewBox="0 0 60 66" fill="none" xmlns="http://www.w3.org/2000/svg">
<path d="M33.5038 0.0923691C30.2424 0.608013 27.0583 2.23228 24.6863 4.60423C23.5648 5.71286 22.1597 7.64652 21.5667 8.89695C21.3991 9.23212 21.2315 9.48994 21.1929 9.46416C20.5483 9.09032 19.4397 8.70359 18.5244 8.52311C13.3293 7.54339 8.61122 11.1787 7.90221 16.7218L7.76041 17.8433L6.96116 18.2301C4.51186 19.4418 1.99811 22.2779 0.941046 25.0365C0.116019 27.1507 0 27.7952 0 30.2574C0 32.3458 0.0257821 32.6036 0.348058 33.6478C0.928155 35.5041 1.79185 37.0123 3.05518 38.2885C3.80286 39.0362 4.93727 39.9901 5.00172 39.9128C5.23376 39.6163 6.11035 38.3788 6.11035 38.3272C6.11035 38.3014 5.54315 37.7084 4.84703 36.9994C2.79736 34.9497 2.06257 33.1708 2.07546 30.3219C2.07546 27.8726 2.68134 25.7842 3.93177 23.8635C5.13063 22.02 6.41974 20.8985 8.55965 19.8028C9.25577 19.4418 9.70695 19.1195 9.81008 18.9133C9.90032 18.7328 9.97767 18.1785 9.97767 17.6886C9.97767 16.5413 10.2355 15.4972 10.8156 14.3241C11.9629 11.965 14.2059 10.5212 16.7455 10.5212C18.3826 10.5083 19.4268 10.8435 20.6257 11.7588C21.2573 12.2486 21.9792 12.3646 22.3788 12.0424C22.4949 11.965 22.8171 11.3591 23.0879 10.7275C23.8098 9.03875 24.9184 7.42737 26.2719 6.07381C28.0251 4.33352 29.7783 3.28935 32.1116 2.59323C33.6456 2.12915 36.4688 2.01313 38.093 2.3483C40.581 2.85105 42.7854 3.98547 44.6288 5.69997C47.8258 8.69069 49.4629 12.5967 49.4243 17.1343C49.4114 18.0109 49.45 18.8231 49.5016 18.9649C49.5532 19.0938 50.0172 19.4032 50.5458 19.6352C53.9232 21.1821 56.3081 24.1599 57.1331 27.8726C57.4038 29.1101 57.3909 31.4821 57.1073 32.6423C56.669 34.4728 55.3155 36.6385 53.949 37.7471C53.6525 37.9791 53.4205 38.2112 53.4205 38.2756C53.4205 38.3401 53.6912 38.7397 54.0135 39.1651L54.5936 39.9257L54.9416 39.6808C56.2307 38.7397 57.9194 36.5611 58.6027 34.9626C59.273 33.377 59.4148 32.552 59.4148 30.2574C59.4019 27.9241 59.2472 27.0604 58.4609 25.0236C57.3909 22.2392 55.0061 19.5707 52.3376 18.1527L51.5899 17.7531L51.5384 16.3093C51.2935 8.61335 46.2917 2.16783 39.1888 0.401756C37.7192 0.0408058 34.8703 -0.113888 33.5038 0.0923691Z" fill="#444FB4"/>
<path d="M11.3312 35.0142C10.4418 35.2333 9.60385 35.9166 9.12688 36.8318C8.90773 37.2444 8.88195 37.6826 8.84328 41.2792C8.81749 43.9348 8.84328 45.4946 8.9464 45.9458C9.12688 46.7966 9.68119 47.5443 10.4547 48.0084C11.0734 48.3693 11.0863 48.3693 13.6903 48.408L16.2943 48.4467V50.4319V52.4042L13.7548 52.4558C11.4344 52.4945 11.1508 52.5202 10.6867 52.7652C10.0293 53.1261 9.51361 53.6418 9.15266 54.2992C8.89484 54.7891 8.88195 55.0082 8.84328 58.9142C8.79171 63.7097 8.85617 64.0706 9.77143 64.9859C10.8156 66.0429 9.30735 65.9656 29.701 65.9656C50.1462 65.9656 48.5992 66.0429 49.6434 64.973C50.5329 64.0577 50.5845 63.7226 50.5845 59.1462C50.5716 54.9051 50.5458 54.6859 49.8884 53.732C49.695 53.4613 49.2438 53.0746 48.87 52.8683L48.1996 52.4945L44.9511 52.4558L41.6897 52.4171V50.4319V48.4467L45.0155 48.408L48.3285 48.3693L48.9473 48.0084C49.7208 47.5443 50.2751 46.7966 50.4556 45.9458C50.5587 45.4946 50.5845 43.9348 50.5587 41.2792C50.52 37.6826 50.4942 37.2444 50.2751 36.8318C49.9399 36.2002 49.3211 35.5685 48.7153 35.2462L48.1996 34.9626L29.9588 34.9369C19.9296 34.9369 11.5504 34.9626 11.3312 35.0142ZM48.0707 37.4119L48.393 37.7213V41.7047V45.688L48.0578 45.9974L47.7227 46.3068H29.701H11.6793L11.3441 45.9974L11.009 45.688V41.7047V37.7213L11.3312 37.4119L11.6406 37.0897H29.701H47.7613L48.0707 37.4119ZM39.6271 50.4319V52.43H28.992H18.3569V50.4319V48.4338H28.992H39.6271V50.4319ZM48.0707 54.9438L48.393 55.2531V59.2107C48.393 63.1038 48.393 63.1811 48.1094 63.4776L47.8387 63.7741H29.7139H11.602L11.3055 63.4905L11.009 63.2198V59.2365V55.2531L11.3312 54.9438L11.6406 54.6215H29.701H47.7613L48.0707 54.9438Z" fill="#444FB4"/>
<path d="M14.8763 41.666V42.7617H16.1654H17.4545V41.666V40.5702H16.1654H14.8763V41.666Z" fill="#444FB4"/>
<path d="M20.4194 41.666V42.7617H21.773H23.1394L23.1008 41.6918L23.0621 40.6347L21.7472 40.596L20.4194 40.5574V41.666Z" fill="#444FB4"/>
<path d="M35.2055 40.6605C35.1539 40.6992 35.1152 41.2019 35.1152 41.7562V42.7617H39.8205H44.5257V41.666V40.5702H39.9107C37.3712 40.5702 35.2441 40.6089 35.2055 40.6605Z" fill="#444FB4"/>
<path d="M14.8763 59.1978V60.2935H16.1654H17.4545V59.1978V58.1021H16.1654H14.8763V59.1978Z" fill="#444FB4"/>
<path d="M20.4194 59.1978V60.2935H21.773H23.1394L23.1008 59.2236L23.0621 58.1665L21.7472 58.1279L20.4194 58.0892V59.1978Z" fill="#444FB4"/>
<path d="M35.2055 58.1923C35.1539 58.231 35.1152 58.7337 35.1152 59.288V60.2935H39.8205H44.5257V59.1978V58.1021H39.9107C37.3712 58.1021 35.2441 58.1407 35.2055 58.1923Z" fill="#444FB4"/>
</svg>
