<svg width="64" height="64" viewBox="0 0 64 64" fill="none" xmlns="http://www.w3.org/2000/svg">
<path d="M15.1 0.250973C8.075 0.953716 2.5 3.03685 0.799999 5.59686L0.124999 6.62587L0.0499994 19.9278C-5.69969e-07 27.2565 0.0499994 33.6063 0.124999 34.058C0.349999 35.2627 2.125 36.9443 4.275 37.9733C7.325 39.4541 11.675 40.3827 17.45 40.7843L19.75 40.96V39.9561V38.9772L16.95 38.7765C11.55 38.4502 7.75 37.5467 4.475 35.8651C3.25 35.2376 2.475 34.6604 2.3 34.2337C2.025 33.6565 1.85 28.6118 2.1 28.6118C2.175 28.6118 2.975 29.0133 3.925 29.4651C7.05 31.0714 11.775 32.1004 17.575 32.4769L19.75 32.6274V31.6486V30.6698L17.325 30.5192C10.025 30.0172 4.725 28.4612 2.8 26.2274C2 25.349 2 25.2988 2 22.5882V19.8525L3.925 20.8314C5.9 21.8353 9.075 22.789 12.5 23.3914C13.675 23.5921 16.425 23.7176 19.75 23.7176C25.375 23.7176 27.05 23.542 31.225 22.4376C35.45 21.3333 38.125 19.702 39.025 17.6941C39.425 16.8408 39.5 15.9874 39.5 11.9467C39.5 7.6298 39.45 7.07764 38.975 6.09882C37.775 3.61411 34.025 1.80705 27.8 0.752934C24.5 0.175678 18.35 -0.0502052 15.1 0.250973ZM27.375 2.63528C34.55 3.91529 38.7 6.52548 37.075 8.73411C35.025 11.5451 28.15 13.4023 19.75 13.4023C11.35 13.4023 4.475 11.5451 2.425 8.73411C0.574999 6.2243 6.225 3.23764 14.65 2.25882C17.425 1.95764 24.7 2.15842 27.375 2.63528ZM3.925 12.3984C7.775 14.3812 13.075 15.36 19.75 15.36C26.425 15.36 31.725 14.3812 35.575 12.3984C36.525 11.9467 37.325 11.5451 37.4 11.5451C37.45 11.5451 37.5 12.7247 37.5 14.1553C37.5 16.6149 37.45 16.8157 36.85 17.5686C35.675 18.9741 32.6 20.2541 28.5 21.1074C25.375 21.76 17.875 22.011 14.275 21.6094C9.075 20.982 4.2 19.3255 2.75 17.6439C2.025 16.8157 2 16.7153 2 14.1804C2 12.7247 2.05 11.5451 2.1 11.5451C2.175 11.5451 2.975 11.9467 3.925 12.3984Z" fill="#444FB4"/>
<path d="M30.6 16.4392C30.225 17.0165 30.225 17.1169 30.6 17.6941C31.325 18.7984 32.75 18.3969 32.75 17.0667C32.75 15.7365 31.325 15.3349 30.6 16.4392Z" fill="#444FB4"/>
<path d="M49.75 15.5357V16.5647H50.775H51.775L51.7 15.611C51.625 14.7325 51.575 14.6823 50.7 14.607L49.75 14.5318V15.5357Z" fill="#444FB4"/>
<path d="M47 18.3216V19.3255H48H49V18.3216V17.3177H48H47V18.3216Z" fill="#444FB4"/>
<path d="M52.5 18.3216C52.5 19.3004 52.525 19.3255 53.375 19.3255C54.225 19.3255 54.25 19.3004 54.25 18.3216C54.25 17.3428 54.225 17.3177 53.375 17.3177C52.525 17.3177 52.5 17.3428 52.5 18.3216Z" fill="#444FB4"/>
<path d="M49.75 21.0824V22.0863H50.75H51.75V21.0824V20.0784H50.75H49.75V21.0824Z" fill="#444FB4"/>
<path d="M34.25 23.9184C29.425 25.3741 25.525 29.1388 23.975 33.9075C23.225 36.2165 23.15 40.458 23.8 42.5663C25.925 49.3427 31.675 53.6847 38.525 53.7098C40.175 53.7098 43.075 53.1577 44.575 52.5804C44.9 52.4298 45 52.5302 45 52.9569C45 53.2831 45.425 53.9357 45.975 54.4878C46.9 55.4165 47.45 55.6173 48.8 55.4918C49.075 55.4667 49.875 56.4204 51.175 58.2777C53.7 61.942 54.2 62.5192 55.675 63.2471C57.9 64.3765 60.85 63.9247 62.4 62.1929C64.45 59.9341 64.35 56.3953 62.175 53.9859C61.875 53.6596 60.25 52.4549 58.55 51.2753C56.35 49.7443 55.5 49.0165 55.6 48.7655C56.05 47.611 54.575 45.2769 53.2 45.0008C52.825 44.9255 52.5 44.8502 52.5 44.8251C52.5 44.8 52.75 44.0973 53.025 43.2941C53.8 41.1859 53.95 37.0949 53.375 34.8863C52.7 32.2259 51.375 29.9671 49.25 27.8337C47.2 25.7506 44.9 24.4204 42.125 23.7177C39.95 23.1655 36.525 23.2408 34.25 23.9184ZM41.975 25.7255C43.975 26.2526 45.85 27.2816 47.475 28.7875C52.375 33.2298 53.275 40.2573 49.65 45.7537C46.525 50.4722 40.575 52.731 35.125 51.3255C29.375 49.8196 25.25 44.4486 25.25 38.3749C25.25 32.778 28.9 27.8337 34.5 25.9263C36.45 25.2486 39.875 25.1482 41.975 25.7255ZM53.15 47.3349C53.65 47.8118 53.75 48.1129 53.625 48.64C53.425 49.3929 53.425 49.4682 53.475 49.8698C53.475 50.0204 55.1 51.2753 57.025 52.6306C61.125 55.4667 61.875 56.3451 61.875 58.3278C61.875 61.3647 58.825 62.9208 56.125 61.2392C55.55 60.8878 54.4 59.4824 52.875 57.2235C50.025 53.0824 50 53.0322 49 53.4588C47.975 53.8855 47 53.2831 47 52.2039C47 51.6016 47.425 51.0243 49.25 49.2173C52.125 46.3812 52.175 46.331 53.15 47.3349Z" fill="#444FB4"/>
<path d="M35.925 28.3859C33.125 29.0384 30.25 31.4981 28.925 34.309C28.225 35.84 28.15 36.2416 28.15 38.4C28.15 41.1859 28.675 42.7922 30.2 44.8C34.475 50.4722 43.2 50.1961 47.25 44.2981C49.175 41.4871 49.55 37.2455 48.125 34.2588C45.925 29.6659 40.85 27.2063 35.925 28.3859ZM41.575 30.6196C43.275 31.2471 44.825 32.5773 45.95 34.3592C46.775 35.6392 46.85 35.9655 46.95 37.8981C47.025 39.6298 46.95 40.3075 46.5 41.462C45.8 43.3443 44.1 45.2267 42.3 46.1051C41.05 46.7326 40.6 46.8079 38.5 46.8079C36.4 46.8079 35.975 46.7326 34.8 46.1051C31.975 44.6243 30.225 41.9639 30.05 38.8518C29.925 36.9192 30.25 35.7898 31.4 33.9326C33.475 30.6949 37.9 29.2392 41.575 30.6196Z" fill="#444FB4"/>
<path d="M33.8 35.0369C32.325 36.6933 32.5 40.8094 34.1 42.1396C34.475 42.4659 34.6 42.4157 35.175 41.8384C35.85 41.1859 35.85 41.1859 35.35 40.6337C34.65 39.8557 34.675 36.9192 35.375 36.1412C35.85 35.589 35.85 35.589 35.25 35.1122C34.5 34.56 34.225 34.5349 33.8 35.0369Z" fill="#444FB4"/>
<path d="M18.25 48.9412V49.9451H19.25H20.25V48.9412V47.9373H19.25H18.25V48.9412Z" fill="#444FB4"/>
<path d="M15.5 51.702V52.7059H16.5H17.5V51.702V50.6981H16.5H15.5V51.702Z" fill="#444FB4"/>
<path d="M21 51.702V52.7059H22H23V51.702V50.6981H22H21V51.702Z" fill="#444FB4"/>
<path d="M18.25 54.4628V55.4667H19.25H20.25V54.4628V53.4588H19.25H18.25V54.4628Z" fill="#444FB4"/>
</svg>
