<svg width="62" height="62" viewBox="0 0 62 62" fill="none" xmlns="http://www.w3.org/2000/svg">
<path d="M29.9102 0.278517C29.5469 0.472267 29.2926 0.726562 29.0988 1.08984L28.8203 1.61055V12.5816C28.8203 23.0199 28.8324 23.577 29.0504 24.0492C29.1715 24.3277 29.4621 24.6789 29.6801 24.8363L30.0918 25.127L35.6379 25.1633C40.9055 25.1875 41.1719 25.1996 41.1719 25.4176C41.1719 25.6113 40.6996 28.0938 40.5059 28.9051C40.4453 29.1715 40.3848 29.1836 39.2828 29.1836H38.1324L38.1687 30.1766L38.2051 31.1816L45.4465 31.218L52.6758 31.2422V30.2129V29.1836H51.5254C50.8957 29.1836 50.375 29.1594 50.375 29.1473C50.375 29.123 50.2176 28.2875 50.0117 27.3066C49.818 26.3258 49.6484 25.4418 49.6484 25.3449C49.6484 25.2117 50.6051 25.1875 55.0371 25.1875C61.0312 25.1875 60.9828 25.1996 61.5883 24.3883L61.9395 23.9402L61.9758 12.7875L62 1.63477L61.7336 1.08984C61.5277 0.690235 61.3098 0.472267 60.9102 0.266407L60.3773 1.90735e-06H45.398H30.4309L29.9102 0.278517ZM59.9414 12.6543V23.25H45.4102H30.8789V12.6543V2.05859H45.4102H59.9414V12.6543ZM47.941 27.0887C48.1469 28.1422 48.3164 29.0383 48.3164 29.0867C48.3164 29.1473 47.0086 29.1836 45.4102 29.1836C43.8117 29.1836 42.5039 29.1594 42.5039 29.1473C42.5039 29.0383 43.2426 25.4781 43.291 25.3328C43.3273 25.2238 43.8723 25.1875 45.4465 25.1875H47.5535L47.941 27.0887Z" fill="#444FB4"/>
<path d="M33.9305 4.80743C33.8457 4.84376 33.7004 5.0254 33.6035 5.20704C33.4461 5.50978 33.4219 6.62384 33.4219 12.5938C33.4219 20.4649 33.3977 20.2227 34.2453 20.4649C34.5602 20.5617 38.0356 20.5859 45.7492 20.5617L56.8172 20.5254L57.1078 20.1863L57.3984 19.8352L57.3742 12.509L57.3379 5.18283L57.0473 4.95275C56.7809 4.73478 56.4176 4.72267 45.4223 4.73478C39.1859 4.73478 34.0152 4.77111 33.9305 4.80743ZM55.3399 12.5938V18.5274H45.4102H35.4805V12.5938V6.66017H45.4102H55.3399V12.5938Z" fill="#444FB4"/>
<path d="M44.1992 8.6582C44.1023 8.68242 43.7633 8.74297 43.4484 8.77929L42.8672 8.85195V12.6543V16.4445L43.8359 16.5293C44.9016 16.6262 45.8582 16.5293 46.5 16.2629C48.0258 15.6332 48.4496 13.7926 47.3355 12.6422C47.0934 12.4 47.0086 12.2305 47.0934 12.1699C47.3355 12.0367 47.7109 11.1648 47.7109 10.7773C47.7109 9.97812 47.1902 9.26367 46.3668 8.9125C45.9309 8.73086 44.5504 8.57343 44.1992 8.6582ZM45.8703 10.2445C46.2215 10.4867 46.2336 11.1406 45.8945 11.4434C45.7613 11.5645 45.3859 11.6855 45.0469 11.7219L44.4414 11.7824V10.9105V10.0508H45.0227C45.3496 10.0508 45.7129 10.1355 45.8703 10.2445ZM45.8582 13.3203C46.4879 13.6957 46.5484 14.6039 45.9793 14.9066C45.6402 15.1004 44.8168 15.2578 44.5988 15.173C44.4898 15.1246 44.4414 14.8219 44.4414 14.0953V13.0781H44.9621C45.2527 13.0781 45.6402 13.175 45.8582 13.3203Z" fill="#444FB4"/>
<path d="M16.166 5.11016C15.7422 5.34023 15.6211 5.60664 15.6211 6.32109V7.02344H16.5898H17.5586V5.99414V4.96484H16.9895C16.6625 4.96484 16.2992 5.0375 16.166 5.11016Z" fill="#444FB4"/>
<path d="M19.8594 5.99414V7.02344H20.9492H22.0391V5.99414V4.96484H20.9492H19.8594V5.99414Z" fill="#444FB4"/>
<path d="M24.3398 5.99414V7.02344H25.4297H26.5195V5.99414V4.96484H25.4297H24.3398V5.99414Z" fill="#444FB4"/>
<path d="M15.6211 9.74805V10.6562H16.5898H17.5586V9.74805V8.83984H16.5898H15.6211V9.74805Z" fill="#444FB4"/>
<path d="M15.6211 13.502V14.4102H16.5898H17.5586V13.502V12.5938H16.5898H15.6211V13.502Z" fill="#444FB4"/>
<path d="M15.6211 17.1348V18.043H16.5898H17.5586V17.1348V16.2266H16.5898H15.6211V17.1348Z" fill="#444FB4"/>
<path d="M15.6211 20.8887V21.7969H16.5898H17.5586V20.8887V19.9805H16.5898H15.6211V20.8887Z" fill="#444FB4"/>
<path d="M15.6211 24.582V25.5508H16.5898H17.5586V24.582V23.6133H16.5898H15.6211V24.582Z" fill="#444FB4"/>
<path d="M54.9766 28.2148V29.1836H56.0059H57.0352V28.2148V27.2461H56.0059H54.9766V28.2148Z" fill="#444FB4"/>
<path d="M15.6211 28.2754V29.1836H16.5898H17.5586V28.2754V27.3672H16.5898H15.6211V28.2754Z" fill="#444FB4"/>
<path d="M1.08984 31.0242C0.690234 31.2301 0.472266 31.448 0.266406 31.8477L0 32.3926L0.0242187 43.5453L0.0605469 54.698L0.411719 55.1461C1.01719 55.9574 0.956641 55.9453 7.02344 55.9453H12.4727L12.4121 56.2117C12.3758 56.3691 12.2184 57.1441 12.0488 57.9434C11.8793 58.7426 11.7219 59.5176 11.6855 59.6629C11.625 59.9172 11.5402 59.9293 10.4988 59.9656L9.38477 60.002L9.34844 60.9949L9.31211 62H16.5898H23.8555V60.9707V59.9414H22.7051C22.0754 59.9414 21.5547 59.9172 21.5547 59.9051C21.5547 59.8809 21.3973 59.0453 21.1914 58.0645C20.9977 57.0836 20.8281 56.1996 20.8281 56.1148C20.8281 55.9816 21.8937 55.9453 26.3742 55.9211L31.9082 55.8848L32.3199 55.5941C32.5379 55.4367 32.8285 55.0855 32.9496 54.807C33.1676 54.3348 33.1797 53.7777 33.1797 43.4727C33.1797 36.7277 33.1312 32.4773 33.0586 32.2109C32.9254 31.7145 32.3199 31.0727 31.8113 30.891C31.5812 30.7941 26.7738 30.7578 16.5414 30.7578H1.62266L1.08984 31.0242ZM31.1211 43.4121V54.0078H16.5898H2.05859V43.4121V32.8164H16.5898H31.1211V43.4121ZM19.1207 57.8465C19.3266 58.9 19.4961 59.7961 19.4961 59.8445C19.4961 59.9051 18.1883 59.9414 16.5777 59.9414C13.8652 59.9414 13.6715 59.9293 13.732 59.7234C13.7562 59.6145 13.9379 58.7789 14.1074 57.8828C14.277 56.9867 14.4465 56.1754 14.4707 56.0906C14.507 55.9816 15.052 55.9453 16.6262 55.9453H18.7332L19.1207 57.8465Z" fill="#444FB4"/>
<path d="M4.95273 35.7105L4.66211 35.9406L4.62578 43.2668L4.60156 50.593L4.89219 50.9441L5.18281 51.2832H16.5777H27.9605L28.2391 51.0047L28.5176 50.7262L28.5539 43.7391C28.5781 39.9004 28.5539 36.5703 28.5176 36.3523C28.4813 36.1465 28.3238 35.8559 28.1906 35.7227C27.9363 35.4805 27.7547 35.4805 16.5777 35.4805C5.59453 35.4805 5.21914 35.4926 4.95273 35.7105ZM26.5195 43.3516V49.2852H16.5898H6.66016V43.3516V37.418H16.5898H26.5195V43.3516Z" fill="#444FB4"/>
<path d="M15.8027 39.9852C15.7664 40.0699 15.2215 41.6562 14.5918 43.509C13.7078 46.0883 13.4777 46.8875 13.6109 46.9359C13.6957 46.9723 14.0348 46.9844 14.3617 46.9602L14.9551 46.9238L15.282 45.9551L15.609 44.9863L16.5535 44.95L17.5102 44.9137L17.8371 45.9551L18.1762 46.9844H18.9027C19.4113 46.9844 19.6172 46.9359 19.6172 46.827C19.6172 46.6938 18.6121 43.6543 17.5586 40.5906L17.2922 39.8398H16.5777C16.1055 39.8398 15.8391 39.8883 15.8027 39.9852ZM16.8805 42.9156C16.9895 43.2426 17.0742 43.5332 17.0742 43.5574C17.0742 43.5816 16.832 43.5938 16.5414 43.5938H15.9965L16.2508 42.8551C16.384 42.4555 16.5414 42.1648 16.5898 42.2254C16.6383 42.2738 16.7715 42.5887 16.8805 42.9156Z" fill="#444FB4"/>
<path d="M55.0008 32.0535L55.0371 32.998H56.0059H56.9746L57.011 32.0535L57.0473 31.1211H56.0059H54.9645L55.0008 32.0535Z" fill="#444FB4"/>
<path d="M55.0613 34.9477C55.0129 34.9961 54.9766 35.432 54.9766 35.9285V36.8125H56.0059H57.0473L57.0109 35.868L56.9746 34.9355L56.0664 34.8992C55.5578 34.8871 55.1098 34.8992 55.0613 34.9477Z" fill="#444FB4"/>
<path d="M54.9766 39.7188V40.6875H56.0059H57.0473L57.0109 39.743L56.9746 38.8105L55.9816 38.7742L54.9766 38.7379V39.7188Z" fill="#444FB4"/>
<path d="M35.2383 43.6543V44.6836H36.207H37.1758V43.6543V42.625H36.207H35.2383V43.6543Z" fill="#444FB4"/>
<path d="M39.1617 42.7824C39.1254 42.8793 39.1133 43.3273 39.1375 43.7875L39.1738 44.6231L40.1789 44.6594L41.1719 44.6957V43.6543V42.625H40.2031C39.5008 42.625 39.2102 42.6734 39.1617 42.7824Z" fill="#444FB4"/>
<path d="M43.1094 43.6543V44.6836H44.0781H45.0469V43.6543V42.625H44.0781H43.1094V43.6543Z" fill="#444FB4"/>
<path d="M47.1055 43.6543V44.6836H48.0742H49.043V43.6543V42.625H48.0742H47.1055V43.6543Z" fill="#444FB4"/>
<path d="M51.1016 43.6543V44.6836H52.0703H53.0391V43.6543V42.625H52.0703H51.1016V43.6543Z" fill="#444FB4"/>
<path d="M54.9766 43.6664V44.7078L55.7031 44.6594C56.248 44.6231 56.5023 44.5383 56.6961 44.3445C56.8898 44.1508 56.9746 43.8965 57.0109 43.3516L57.0594 42.625H56.018H54.9766V43.6664Z" fill="#444FB4"/>
</svg>
