<svg width="58" height="58" viewBox="0 0 58 58" fill="none" xmlns="http://www.w3.org/2000/svg">
<path d="M19.6543 0.113297C17.1281 0.373844 14.3867 1.15548 12.1551 2.25431C0.532425 7.99767 -3.51172 22.3617 3.39844 33.3387L4.08946 34.4375L3.40977 35.9328L2.73008 37.4281L3.53438 37.802C3.97617 38.0059 4.36133 38.1758 4.40664 38.1758C4.44063 38.1758 4.67852 37.7113 4.91641 37.1563C5.16563 36.5899 5.39219 36.1367 5.4375 36.1367C5.47149 36.1367 5.8793 36.5219 6.34375 36.9977C10.5918 41.3024 16.3918 43.5793 22.4863 43.3527C25.6469 43.2281 27.7766 42.6957 31.2203 41.1664C31.2883 41.1324 31.3902 41.4496 31.4695 41.9707C31.5488 42.4465 31.7414 43.1035 31.9 43.4434C32.3078 44.2703 33.2027 45.1426 34.0977 45.5731C34.7547 45.8902 34.9473 45.9356 35.8535 45.9356C36.4199 45.9356 37.009 45.9016 37.1676 45.8563C37.4508 45.777 37.5867 45.9469 40.4414 50.1043C43.5453 54.6016 44.2816 55.4965 45.5957 56.3801C47.3516 57.5582 48.473 57.932 50.3535 57.932C51.5543 57.9434 51.8262 57.9094 52.7098 57.6149C55.6891 56.6406 57.7508 54.0125 57.966 50.9086C58.0906 49.1981 57.6148 47.5328 56.5273 45.8902C55.4625 44.2703 54.8734 43.7832 50.1496 40.5094L45.777 37.4848L45.8563 37.1223C45.9016 36.9184 45.9355 36.352 45.9355 35.8422C45.9355 35.0266 45.8902 34.8567 45.5051 34.075C44.7574 32.557 43.4094 31.6168 41.8348 31.5149C41.3816 31.4922 41.0078 31.4469 41.0078 31.4356C41.0078 31.4242 41.2004 30.9824 41.4496 30.4613C42.2652 28.6942 42.8996 26.3832 43.1715 24.1969C43.3867 22.441 43.2508 19.2012 42.877 17.4453C42.2992 14.6586 41.1551 11.9399 39.6145 9.66291L38.7875 8.42814L41.1098 5.89064L43.4434 3.36447L43.4773 4.28205L43.5113 5.21095H44.4062H45.3125V2.88869C45.3125 -0.237877 45.5504 1.52588e-05 42.4238 1.52588e-05H40.0902L40.1242 0.928921L40.1582 1.86916L41.1664 1.9258L42.1746 1.98244L39.8637 4.49728L37.5641 7.01212L36.5332 6.02658C33.3727 2.96798 29.3852 0.996891 24.9332 0.294544C23.5738 0.0679817 20.957 -0.0113144 19.6543 0.113297ZM24.2762 2.09572C28.3543 2.63947 32.2398 4.49728 35.2645 7.3633L36.3066 8.34884L35.8535 8.84728C34.5848 10.2633 29.4191 15.8594 29.3852 15.8594C29.3625 15.8594 27.8105 15.2137 25.9301 14.432C22.2824 12.9141 22.0559 12.8574 21.682 13.4238C21.5348 13.6504 20.5039 19.1672 20.5039 19.7223C20.5039 19.8582 20.7078 19.9375 21.3648 20.0395C21.8406 20.1188 22.2371 20.1641 22.2598 20.1414C22.2824 20.1188 22.4863 19.0426 22.7129 17.7285C22.9395 16.4258 23.132 15.3383 23.1434 15.327C23.1547 15.3156 24.5594 15.8934 26.2699 16.607C27.9691 17.3207 29.5211 17.8985 29.7137 17.8985C30.1215 17.8985 30.0535 17.9664 34.3016 13.3445L37.4848 9.85548L37.768 10.2293C40.3281 13.6504 41.7555 18.7707 41.3703 23.2C40.9172 28.309 38.9348 32.5004 35.3098 35.9781C31.2543 39.875 25.8621 41.8461 20.334 41.461C16.2105 41.1664 12.4609 39.6938 9.27774 37.1336C8.14492 36.2274 6.34375 34.3922 6.34375 34.1543C6.34375 33.9957 10.8637 24.0043 10.9996 23.8457C11.0676 23.7891 12.6762 25.307 15.1004 27.7313C18.6574 31.277 19.1445 31.7188 19.4617 31.7188C19.6656 31.7188 19.9375 31.6168 20.1074 31.4582C20.3793 31.2203 20.4473 30.9711 21.059 27.4141L21.7047 23.6192L21.4215 23.5399C20.8777 23.3813 19.8242 23.302 19.8242 23.4152C19.8242 23.6305 19.0199 28.2637 18.9406 28.5242C18.8613 28.7735 18.5102 28.4563 14.9871 24.9899C11.4414 21.5008 11.0902 21.1836 10.7277 21.1836C10.4785 21.1836 10.2633 21.2742 10.116 21.4328C9.98008 21.5801 8.7793 24.1063 7.44258 27.0629L5.00703 32.4211L4.51992 31.5942C3.51172 29.861 2.73008 27.7879 2.24297 25.5789C2.02774 24.5594 1.99375 24.0723 1.98242 21.75C1.98242 19.5977 2.01641 18.9067 2.18633 18.125C2.70742 15.6781 3.35313 13.9336 4.44063 12.0078C7.52188 6.52501 12.9934 2.8547 19.2578 2.0504C20.4473 1.89181 22.9621 1.91447 24.2762 2.09572ZM42.4465 33.4973C43.8625 34.075 44.4629 35.6836 43.8398 37.2016C43.398 38.2438 42.9562 37.836 49.1867 42.1293C53.65 45.1992 54.3184 45.7656 55.202 47.2496C55.893 48.4164 56.1082 49.3 56.0516 50.6707C55.9836 52.0414 55.7344 52.8004 54.9867 53.8086C54.0805 55.0434 52.7098 55.8477 51.1125 56.0742C49.1867 56.3461 47.091 55.4852 45.3918 53.7293C45.0973 53.4235 43.4094 51.0785 41.6422 48.5297C39.4445 45.3578 38.3344 43.8512 38.1191 43.7379C37.8359 43.602 37.734 43.6133 37.2242 43.8285C36.3859 44.1684 35.9895 44.225 35.3551 44.0664C34.1656 43.7832 33.282 42.6957 33.2594 41.4723C33.248 40.5547 33.4406 40.2149 34.4715 39.3426C35.627 38.3797 38.0852 35.9328 39.1953 34.6641C39.6484 34.1317 40.1355 33.6332 40.2602 33.5426C40.7359 33.2027 41.6875 33.1801 42.4465 33.4973Z" fill="#444FB4"/>
<path d="M49.0508 25.0352V25.9414H49.957H50.8633V25.0352V24.1289H49.957H49.0508V25.0352Z" fill="#444FB4"/>
<path d="M46.6379 26.5871C46.5926 26.6211 46.5586 27.0629 46.5586 27.55V28.4336H47.4648H48.3711V27.4707V26.5078H47.5441C47.0797 26.5078 46.6719 26.5418 46.6379 26.5871Z" fill="#444FB4"/>
<path d="M51.543 27.4707V28.4336H52.4492H53.3555V27.4707V26.5078H52.4492H51.543V27.4707Z" fill="#444FB4"/>
<path d="M49.0508 29.9629V30.9258H49.957H50.8633V29.9629V29H49.957H49.0508V29.9629Z" fill="#444FB4"/>
<path d="M24.6953 47.9746V48.9489L25.6355 48.9149L26.5645 48.8809V47.9746V47.0684L25.6355 47.0344L24.6953 47.0004V47.9746Z" fill="#444FB4"/>
<path d="M22.3164 50.4668V51.441L23.2 51.4071L24.0723 51.3731L24.1063 50.4328L24.1402 49.5039H23.2227H22.3164V50.4668Z" fill="#444FB4"/>
<path d="M27.1875 50.4668V51.4297H28.0938H29V50.4668V49.5039H28.0938H27.1875V50.4668Z" fill="#444FB4"/>
<path d="M24.6953 52.9023V53.8086H25.6582H26.6211V52.9023V51.9961H25.6582H24.6953V52.9023Z" fill="#444FB4"/>
</svg>
