<svg width="22" height="30" viewBox="0 0 22 30" fill="none" xmlns="http://www.w3.org/2000/svg">
<path d="M2.22852 0.111314C1.81836 0.251939 1.47266 0.498033 1.23828 0.820298C0.828127 1.37694 0.857424 0.187487 0.863284 15.0058C0.863284 29.8125 0.833987 28.6289 1.23828 29.1855C1.47266 29.5078 1.89453 29.7949 2.29297 29.9121C2.68555 30.0293 3.62305 30.0293 4.02735 29.9062C4.71289 29.7012 5.19336 29.2265 5.39844 28.5351C5.48047 28.2539 5.49219 27.4336 5.49219 21.0527V13.8867H7.13281H8.77344V15.4629C8.77344 16.9277 8.7793 17.0449 8.88477 17.1738L8.9961 17.3144H14.6738C20.1172 17.3144 20.3574 17.3086 20.5684 17.2031C20.8965 17.039 21.0957 16.7519 21.1191 16.3887L21.1426 16.084L19.9941 14.3027C19.3672 13.3242 18.8516 12.5039 18.8516 12.4746C18.8516 12.4453 19.3672 11.6191 19.9941 10.6406C20.9199 9.19335 21.1367 8.81835 21.1367 8.64842C21.1367 8.23241 20.9258 7.916 20.5215 7.7285C20.3047 7.62889 20.0645 7.61717 16.7598 7.61717H13.2266V6.24022C13.2266 4.69921 13.2148 4.64061 12.834 4.3535L12.623 4.18944L9.05469 4.17186L5.49219 4.15428V2.97069C5.49219 1.47655 5.42188 1.17772 4.94141 0.650376C4.50781 0.181626 3.99805 -1.43051e-05 3.125 -1.43051e-05C2.70899 0.00584507 2.43946 0.0351419 2.22852 0.111314ZM4.09766 1.18358C4.4668 1.46483 4.4961 1.5996 4.4961 2.95311V4.16014H3.14844H1.80078V2.99413C1.80078 1.78124 1.83008 1.5996 2.05274 1.3535C2.35156 1.03124 2.48047 0.99022 3.21289 1.0078C3.84571 1.02538 3.9043 1.0371 4.09766 1.18358ZM12.2891 9.02342V12.8906H7.04492H1.80078V9.02342V5.15624H7.04492H12.2891V9.02342ZM19.9473 8.91796C18.2832 11.5078 17.8438 12.2109 17.7969 12.334C17.7676 12.416 17.7617 12.5332 17.791 12.6094C17.8203 12.6855 18.3418 13.5234 18.9512 14.4726C19.5605 15.4219 20.0762 16.2363 20.1055 16.2715C20.1406 16.3301 19.0859 16.3476 14.9316 16.3476H9.71094V15.1172V13.8867H11.0762C12.377 13.8867 12.4531 13.8808 12.6992 13.7519C12.8457 13.6816 13.0215 13.5351 13.0918 13.4238C13.2266 13.2246 13.2266 13.2129 13.2266 10.9219V8.61327H16.6836H20.1465L19.9473 8.91796ZM4.4961 21.0703C4.4961 29.0683 4.52539 28.4883 4.09766 28.8164C3.91016 28.9629 3.83399 28.9746 3.28321 28.9922C2.94922 29.0039 2.60938 28.998 2.53321 28.9805C2.32813 28.9277 1.97071 28.5996 1.88281 28.3769C1.8125 28.2187 1.80078 26.9121 1.80078 21.0351V13.8867H3.14844H4.4961V21.0703Z" fill="#444FB4"/>
<path d="M4.49609 9.02344V11.6016H4.99414H5.49219V9.02344V6.44531H4.99414H4.49609V9.02344Z" fill="#444FB4"/>
</svg>
