<svg width="34" height="30" viewBox="0 0 34 30" fill="none" xmlns="http://www.w3.org/2000/svg">
<path d="M0.81449 0.138765C0.47749 0.31057 0.186745 0.640961 0.081019 0.98457C-0.0313144 1.36122 -0.0247066 23.372 0.0876269 23.7486C0.193352 24.0988 0.622863 24.5283 0.973079 24.6341C1.17792 24.6935 2.6713 24.7134 7.17124 24.7134H13.0919V26.8279V28.9424H10.343C8.67783 28.9424 7.54789 28.9688 7.4752 29.0085C7.31001 29.0944 7.20428 29.438 7.27697 29.6296C7.42234 30.0261 6.76155 29.9996 16.9443 29.9996H26.2481L26.4067 29.8344C26.6115 29.6362 26.6181 29.3521 26.4331 29.1142L26.301 28.9424H23.2614H20.2284V26.8279V24.7134H26.4596C32.3405 24.7134 32.6974 24.7067 32.9485 24.5878C33.2326 24.4623 33.6026 24.0856 33.7282 23.7949C33.8405 23.557 33.8802 1.40747 33.7744 1.03743C33.6819 0.713648 33.2855 0.277531 32.9485 0.125549C32.6974 0.00660896 32.0234 0 16.8914 0H1.09863L0.81449 0.138765ZM32.585 1.18941C32.7172 1.32157 32.7172 1.40747 32.7172 10.3082V19.2949H16.9244H1.13167V10.2422V1.18281L1.28365 1.12333C1.36955 1.0903 7.85846 1.06386 16.9443 1.06386C32.367 1.05726 32.4529 1.05726 32.585 1.18941ZM32.704 21.9182L32.6842 23.4843L32.519 23.5702C32.3868 23.6363 29.2282 23.6561 16.9112 23.6561C7.03908 23.6561 1.4092 23.6297 1.30347 23.59L1.13167 23.5239V21.9381V20.3522H16.9244H32.7172L32.704 21.9182ZM19.105 26.8279V28.9424H16.6601H14.2152V26.8279V24.7134H16.6601H19.105V26.8279Z" fill="#444FB4"/>
<path d="M15.0412 3.06598C14.4531 3.251 13.865 3.77963 13.5941 4.35451C13.4619 4.63865 13.4553 4.78402 13.4355 6.52189L13.4157 8.39191H12.9531C12.3254 8.39191 11.9619 8.49763 11.6448 8.76195C11.1624 9.17824 11.169 9.10556 11.1888 13.0967L11.2086 16.6385L11.4069 16.9293C11.5192 17.0812 11.7307 17.2795 11.8694 17.3588L12.1337 17.5107H16.8782C20.7041 17.5107 21.6623 17.4909 21.8341 17.4248C22.0918 17.3125 22.5213 16.85 22.5874 16.6055C22.6204 16.4997 22.6402 14.8412 22.6402 12.9183V9.41613L22.4552 9.10556C22.1711 8.62318 21.8209 8.44477 21.0477 8.40513L20.4266 8.37209V6.74656C20.4266 4.9294 20.3737 4.56596 20.0169 4.01751C19.7658 3.62104 19.4024 3.3303 18.92 3.13206C18.5566 2.98008 18.4707 2.97347 16.9244 2.98008C15.8143 2.98008 15.2196 3.00651 15.0412 3.06598ZM18.398 4.10342C18.7086 4.18932 19.0984 4.51971 19.2108 4.80385C19.2834 4.96244 19.3033 5.4382 19.3033 6.70691V8.39191H16.8914H14.4795V6.7862C14.4795 5.86771 14.5126 5.08138 14.5522 4.936C14.6381 4.62544 15.061 4.18932 15.3518 4.10342C15.6491 4.01751 18.0874 4.01751 18.398 4.10342ZM21.4706 9.59454C21.583 9.70687 21.583 16.2619 21.4706 16.3742C21.4112 16.4337 20.3077 16.4535 16.9178 16.4535C12.9333 16.4535 12.4311 16.4403 12.3386 16.3478C12.2461 16.2553 12.2329 15.8654 12.2329 13.0108C12.2329 10.9029 12.2593 9.7267 12.2989 9.64079C12.365 9.52185 12.4906 9.51524 16.8782 9.51524C20.301 9.51524 21.4112 9.53507 21.4706 9.59454Z" fill="#444FB4"/>
<path d="M16.3099 11.3655C16.0126 11.6232 15.9068 11.8875 15.9531 12.2642C15.9729 12.4822 16.039 12.621 16.191 12.7796C16.3958 12.991 16.3958 12.9976 16.3958 13.6716C16.3958 14.0417 16.4222 14.4051 16.4619 14.4712C16.5478 14.6364 16.8914 14.7421 17.083 14.6694C17.3804 14.5571 17.4531 14.3655 17.4531 13.6584C17.4531 13.0373 17.4597 12.9976 17.6447 12.7664C17.9156 12.4227 17.9619 12.1122 17.7967 11.7355C17.6183 11.3457 17.3341 11.1673 16.8782 11.1673C16.5874 11.1673 16.4949 11.2003 16.3099 11.3655Z" fill="#444FB4"/>
</svg>
