<svg width="40" height="29" viewBox="0 0 40 29" fill="none" xmlns="http://www.w3.org/2000/svg">
<path d="M18.6892 0.485904C16.3926 0.825007 14.5583 2.39722 13.857 4.63993C13.6027 5.47227 13.6027 7.03677 13.857 7.87683C14.6431 10.397 16.8704 12.0386 19.5139 12.0463C20.5312 12.0463 21.1554 11.9075 22.0803 11.4605C23.3134 10.8671 24.1457 10.0348 24.7777 8.78624C25.2478 7.85371 25.3788 7.1755 25.3403 6.00405C25.3095 5.24877 25.2632 4.9405 25.0937 4.44725C24.7931 3.56867 24.3384 2.83651 23.6679 2.16601C22.7199 1.21806 21.6024 0.670869 20.246 0.485904C19.5678 0.39342 19.352 0.39342 18.6892 0.485904ZM20.9628 1.94251C22.35 2.41263 23.4521 3.51472 23.8991 4.88655C24.138 5.6187 24.1611 6.8441 23.9376 7.49148C23.375 9.15617 22.2344 10.2351 20.5928 10.659C19.1054 11.0367 17.5332 10.6282 16.3695 9.54152C15.7606 8.97892 15.4138 8.43943 15.1286 7.63021C14.8666 6.88264 14.8512 5.71119 15.0978 4.9482C15.5834 3.42224 17.0245 2.10435 18.5351 1.79608C19.1594 1.67277 20.3848 1.74213 20.9628 1.94251Z" fill="#444FB4"/>
<path d="M30.6735 4.52419C29.1167 4.87871 27.7603 6.11952 27.2747 7.64549C27.082 8.23122 27.0435 9.47973 27.1976 10.0346C27.4057 10.7899 27.8219 11.4989 28.3845 12.077C29.0165 12.7089 29.4404 12.9787 30.2188 13.2407C31.3825 13.6338 32.554 13.5413 33.7254 12.971C36.7928 11.4527 37.0779 7.16766 34.2418 5.22552C33.2245 4.5319 31.8372 4.26216 30.6735 4.52419ZM32.6079 5.84207C33.1936 6.01933 33.5944 6.27366 34.0568 6.7592C35.5905 8.37765 35.0664 10.944 33.0087 11.8997C31.6677 12.5317 29.9336 12.1001 29.0396 10.9209C28.5541 10.289 28.4076 9.81113 28.3999 8.91713C28.3999 8.20809 28.423 8.1079 28.6465 7.62237C29.0473 6.77461 29.8103 6.11182 30.712 5.82666C31.1513 5.68794 32.1147 5.69564 32.6079 5.84207Z" fill="#444FB4"/>
<path d="M6.8668 4.84025C5.71076 5.08687 4.66262 5.79591 4.01524 6.75927C2.79755 8.5781 3.04417 10.9364 4.60096 12.4701C5.40248 13.2639 6.71266 13.8111 7.82245 13.8111C9.74147 13.8111 11.5911 12.4393 12.1846 10.5742C12.4312 9.81892 12.4158 8.64747 12.1537 7.89219C11.8763 7.09838 11.5295 6.55119 10.9283 5.98858C9.83395 4.94815 8.3234 4.52427 6.8668 4.84025ZM9.17116 6.31227C10.096 6.75157 10.6663 7.40665 10.9592 8.37002C11.4216 9.88057 10.6663 11.5221 9.19428 12.2158C8.20009 12.6782 6.8668 12.578 5.9805 11.9614C5.51038 11.6455 5.01714 11.0829 4.81676 10.6281C4.01524 8.87097 4.89383 6.83634 6.75119 6.18126C7.11342 6.05795 7.35233 6.02712 7.93806 6.05024C8.57002 6.06565 8.73957 6.10419 9.17116 6.31227Z" fill="#444FB4"/>
<path d="M18.8049 12.8631C16.4465 13.0943 14.1884 14.0731 12.5391 15.5837L12.0151 16.0692L11.2675 15.7147C10.3581 15.2831 9.73382 15.0904 8.82441 14.9671C5.20987 14.4585 1.59533 16.6935 0.408466 20.1693C0.0924829 21.0941 0 21.8725 0 23.5218C0 25.04 0 25.0477 0.215793 25.4562C0.369932 25.7568 0.531777 25.934 0.809225 26.1036L1.17916 26.3348L5.08656 26.3579L9.00167 26.381L9.04791 26.6893C9.11727 27.1363 9.34077 27.5371 9.7107 27.8685C10.3658 28.4619 9.54115 28.4157 19.7297 28.4157C29.9182 28.4157 29.0936 28.4619 29.7487 27.8685C30.188 27.4754 30.3806 27.0592 30.4269 26.435L30.4654 25.9186L34.3266 25.8955C37.0702 25.8801 38.2494 25.8416 38.3881 25.7799C38.7272 25.6335 39.1665 25.2019 39.3129 24.8705C39.4362 24.6085 39.4594 24.3464 39.4594 23.0517C39.4594 21.4101 39.3669 20.6317 39.0509 19.7069C38.2494 17.3562 36.3843 15.5374 34.026 14.7898C31.8912 14.1193 29.4019 14.4199 27.5599 15.5605L27.1823 15.7995L26.7044 15.391C24.5234 13.5413 21.5562 12.5857 18.8049 12.8631ZM21.3173 14.235C25.1708 14.8977 28.1919 17.8033 28.9857 21.6105C29.1167 22.2578 29.1552 22.7511 29.1784 24.3156C29.2169 26.3887 29.1784 26.7279 28.847 26.9822C28.6466 27.144 28.608 27.144 19.7297 27.144C10.9053 27.144 10.8051 27.144 10.6124 26.9899C10.281 26.7279 10.2502 26.4812 10.281 24.3695C10.3041 22.7203 10.335 22.2733 10.4737 21.6105C11.2675 17.8341 14.2655 14.9209 18.0727 14.2427C18.905 14.0962 20.4773 14.0885 21.3173 14.235ZM33.2861 15.8996C35.5828 16.4854 37.4016 18.3119 37.9951 20.624C38.1261 21.1403 38.1492 21.4794 38.1492 22.8282C38.1492 23.9611 38.1261 24.4389 38.0567 24.5083C37.9874 24.5776 37.0317 24.6007 34.211 24.6007H30.4654L30.4192 23.2674C30.3498 21.3407 30.0569 20.1616 29.24 18.5816C29.0396 18.1886 28.6928 17.6183 28.4693 17.31L28.0609 16.7474L28.3152 16.5856C29.6716 15.7532 31.6369 15.4835 33.2861 15.8996ZM9.41784 16.3852C10.0729 16.547 11.0979 16.9863 11.0979 17.0942C11.0979 17.1173 10.9515 17.3408 10.782 17.6029C10.3273 18.2657 9.67217 19.6683 9.44096 20.4775C9.14039 21.5103 9.01708 22.4968 9.01708 23.8455V25.0632H5.2484C2.03462 25.0632 1.47202 25.0477 1.38724 24.9476C1.31788 24.8628 1.30247 24.385 1.32559 23.0825C1.35642 21.5103 1.37954 21.2637 1.53367 20.7858C2.28895 18.4892 4.10778 16.8245 6.43527 16.3158C7.22908 16.1386 8.57779 16.1694 9.41784 16.3852Z" fill="#444FB4"/>
</svg>
