<svg width="26" height="26" viewBox="0 0 26 26" fill="none" xmlns="http://www.w3.org/2000/svg">
<g clip-path="url(#clip0_60_625)">
<path d="M14.0184 12.9998L20.0056 7.01261C20.124 6.87445 20.1858 6.69673 20.1788 6.51496C20.1717 6.3332 20.0964 6.16078 19.9678 6.03215C19.8392 5.90353 19.6667 5.82818 19.485 5.82115C19.3032 5.81413 19.1255 5.87596 18.9873 5.99428L13.0001 11.9815L7.01287 5.98706C6.87687 5.85106 6.69242 5.77466 6.50009 5.77466C6.30776 5.77466 6.12331 5.85106 5.98731 5.98706C5.85131 6.12305 5.77491 6.30751 5.77491 6.49984C5.77491 6.69216 5.85131 6.87662 5.98731 7.01261L11.9818 12.9998L5.98731 18.9871C5.91171 19.0518 5.8503 19.1315 5.80695 19.2211C5.7636 19.3107 5.73924 19.4083 5.7354 19.5077C5.73156 19.6072 5.74832 19.7064 5.78463 19.7991C5.82094 19.8917 5.87601 19.9759 5.9464 20.0463C6.01678 20.1167 6.10095 20.1718 6.19363 20.2081C6.28631 20.2444 6.3855 20.2611 6.48496 20.2573C6.58442 20.2535 6.68202 20.2291 6.77162 20.1857C6.86123 20.1424 6.9409 20.081 7.00564 20.0054L13.0001 14.0182L18.9873 20.0054C19.1255 20.1237 19.3032 20.1855 19.485 20.1785C19.6667 20.1715 19.8392 20.0961 19.9678 19.9675C20.0964 19.8389 20.1717 19.6665 20.1788 19.4847C20.1858 19.3029 20.124 19.1252 20.0056 18.9871L14.0184 12.9998Z" fill="#444FB4"/>
</g>
<defs>
<clipPath id="clip0_60_625">
<rect width="26" height="26" fill="white" transform="translate(0 -0.000244141)"/>
</clipPath>
</defs>
</svg>
