<svg width="18" height="18" viewBox="0 0 18 18" fill="none" xmlns="http://www.w3.org/2000/svg">
<path d="M14.8652 2.85547H3.13477C2.61642 2.85602 2.11946 3.06218 1.75293 3.42871C1.3864 3.79524 1.18024 4.2922 1.17969 4.81055V13.1895C1.18024 13.7078 1.3864 14.2048 1.75293 14.5713C2.11946 14.9378 2.61642 15.144 3.13477 15.1445H14.8652C15.3836 15.144 15.8805 14.9378 16.2471 14.5713C16.6136 14.2048 16.8198 13.7078 16.8203 13.1895V4.81055C16.8198 4.2922 16.6136 3.79524 16.2471 3.42871C15.8805 3.06218 15.3836 2.85602 14.8652 2.85547ZM14.3702 6.08938L9.34284 9.99953C9.2448 10.0757 9.12417 10.1171 9 10.1171C8.87583 10.1171 8.7552 10.0757 8.65716 9.99953L3.62982 6.08938C3.57075 6.04477 3.52114 5.98887 3.48386 5.92493C3.44659 5.86098 3.42239 5.79026 3.41268 5.71689C3.40297 5.64351 3.40794 5.56893 3.42731 5.49749C3.44667 5.42605 3.48003 5.35917 3.52547 5.30074C3.5709 5.24231 3.62749 5.19349 3.69196 5.15712C3.75642 5.12074 3.82747 5.09754 3.90098 5.08887C3.97448 5.08019 4.04898 5.08621 4.12014 5.10658C4.1913 5.12694 4.25771 5.16125 4.31549 5.2075L9 8.85092L13.6845 5.2075C13.8016 5.11904 13.9489 5.08024 14.0944 5.0995C14.2399 5.11875 14.372 5.19451 14.4621 5.31039C14.5522 5.42627 14.5931 5.57296 14.5759 5.71874C14.5587 5.86451 14.4848 5.99766 14.3702 6.08938Z" fill="white"/>
</svg>
